{
	"asset":{
		"generator":"Khronos glTF Blender I/O v5.1.19",
		"version":"2.0"
	},
	"extensionsUsed":[
		"KHR_materials_transmission"
	],
	"scene":0,
	"scenes":[
		{
			"name":"Scene",
			"nodes":[
				2
			]
		}
	],
	"nodes":[
		{
			"mesh":0,
			"name":"Object_23"
		},
		{
			"children":[
				0
			],
			"name":"CassetteTape_Main_low_02_3_CassetteTape_02a_0_14"
		},
		{
			"children":[
				1
			],
			"name":"CassetteTape_Main_low_02_3_13",
			"rotation":[
				-0.70710688829422,
				0,
				0,
				0.7071066498756409
			],
			"scale":[
				50,
				49.999996185302734,
				49.999996185302734
			],
			"translation":[
				6.131248950958252,
				0.24849213659763336,
				2.137834310531616
			]
		}
	],
	"materials":[
		{
			"alphaMode":"BLEND",
			"doubleSided":true,
			"extensions":{
				"KHR_materials_transmission":{
					"transmissionFactor":1,
					"transmissionTexture":{
						"index":0
					}
				}
			},
			"name":"CassetteTape_02a",
			"normalTexture":{
				"index":1
			},
			"occlusionTexture":{
				"index":2
			},
			"pbrMetallicRoughness":{
				"baseColorTexture":{
					"index":3
				},
				"metallicRoughnessTexture":{
					"index":2
				}
			}
		}
	],
	"meshes":[
		{
			"name":"Object_5",
			"primitives":[
				{
					"attributes":{
						"POSITION":0,
						"NORMAL":1,
						"TEXCOORD_0":2,
						"TEXCOORD_1":3,
						"TEXCOORD_2":4,
						"TEXCOORD_3":5,
						"TEXCOORD_4":6,
						"TEXCOORD_5":7
					},
					"indices":8,
					"material":0
				}
			]
		}
	],
	"textures":[
		{
			"sampler":0,
			"source":0
		},
		{
			"sampler":0,
			"source":1
		},
		{
			"sampler":0,
			"source":2
		},
		{
			"sampler":0,
			"source":3
		}
	],
	"images":[
		{
			"mimeType":"image/png",
			"name":"CassetteTape_02a_transmission",
			"uri":"CassetteTape_02a_transmission.png"
		},
		{
			"mimeType":"image/png",
			"name":"CassetteTape_02a_normal",
			"uri":"CassetteTape_02a_normal.png"
		},
		{
			"mimeType":"image/png",
			"name":"CassetteTape_02a_metallicRoughness",
			"uri":"CassetteTape_02a_metallicRoughness.png"
		},
		{
			"mimeType":"image/png",
			"name":"CassetteTape_02a_baseColor",
			"uri":"CassetteTape_02a_baseColor.png"
		}
	],
	"accessors":[
		{
			"bufferView":0,
			"componentType":5126,
			"count":3858,
			"max":[
				0.05083705484867096,
				0.03449095040559769,
				0.005075765773653984
			],
			"min":[
				-0.05083705484867096,
				-0.03137703984975815,
				-0.005075765773653984
			],
			"type":"VEC3"
		},
		{
			"bufferView":1,
			"componentType":5126,
			"count":3858,
			"type":"VEC3"
		},
		{
			"bufferView":2,
			"componentType":5126,
			"count":3858,
			"type":"VEC2"
		},
		{
			"bufferView":3,
			"componentType":5126,
			"count":3858,
			"type":"VEC2"
		},
		{
			"bufferView":4,
			"componentType":5126,
			"count":3858,
			"type":"VEC2"
		},
		{
			"bufferView":5,
			"componentType":5126,
			"count":3858,
			"type":"VEC2"
		},
		{
			"bufferView":6,
			"componentType":5126,
			"count":3858,
			"type":"VEC2"
		},
		{
			"bufferView":7,
			"componentType":5126,
			"count":3858,
			"type":"VEC2"
		},
		{
			"bufferView":8,
			"componentType":5123,
			"count":9954,
			"type":"SCALAR"
		}
	],
	"bufferViews":[
		{
			"buffer":0,
			"byteLength":46296,
			"byteOffset":0,
			"target":34962
		},
		{
			"buffer":0,
			"byteLength":46296,
			"byteOffset":46296,
			"target":34962
		},
		{
			"buffer":0,
			"byteLength":30864,
			"byteOffset":92592,
			"target":34962
		},
		{
			"buffer":0,
			"byteLength":30864,
			"byteOffset":123456,
			"target":34962
		},
		{
			"buffer":0,
			"byteLength":30864,
			"byteOffset":154320,
			"target":34962
		},
		{
			"buffer":0,
			"byteLength":30864,
			"byteOffset":185184,
			"target":34962
		},
		{
			"buffer":0,
			"byteLength":30864,
			"byteOffset":216048,
			"target":34962
		},
		{
			"buffer":0,
			"byteLength":30864,
			"byteOffset":246912,
			"target":34962
		},
		{
			"buffer":0,
			"byteLength":19908,
			"byteOffset":277776,
			"target":34963
		}
	],
	"samplers":[
		{
			"magFilter":9729,
			"minFilter":9987
		}
	],
	"buffers":[
		{
			"byteLength":297684,
			"uri":"cas1.bin"
		}
	]
}
