{
	"asset":{
		"generator":"Khronos glTF Blender I/O v5.1.19",
		"version":"2.0"
	},
	"scene":0,
	"scenes":[
		{
			"name":"Scene",
			"nodes":[
				2
			]
		}
	],
	"nodes":[
		{
			"mesh":0,
			"name":"Object_11"
		},
		{
			"children":[
				0
			],
			"name":"CassetteTape_Main_low_01_2_CassetteTape_01a_0_6"
		},
		{
			"children":[
				1
			],
			"name":"CassetteTape_Main_low_01_2_5",
			"rotation":[
				-0.70710688829422,
				0,
				0,
				0.7071066498756409
			],
			"scale":[
				50,
				49.999996185302734,
				49.999996185302734
			],
			"translation":[
				-0.10650455951690674,
				0.24849213659763336,
				-2.007915735244751
			]
		}
	],
	"materials":[
		{
			"doubleSided":true,
			"name":"CassetteTape_01a",
			"normalTexture":{
				"index":0
			},
			"occlusionTexture":{
				"index":1
			},
			"pbrMetallicRoughness":{
				"baseColorTexture":{
					"index":2
				},
				"metallicRoughnessTexture":{
					"index":1
				}
			}
		}
	],
	"meshes":[
		{
			"name":"Object_1",
			"primitives":[
				{
					"attributes":{
						"POSITION":0,
						"NORMAL":1,
						"TEXCOORD_0":2,
						"TEXCOORD_1":3,
						"TEXCOORD_2":4,
						"TEXCOORD_3":5,
						"TEXCOORD_4":6
					},
					"indices":7,
					"material":0
				}
			]
		}
	],
	"textures":[
		{
			"sampler":0,
			"source":0
		},
		{
			"sampler":0,
			"source":1
		},
		{
			"sampler":0,
			"source":2
		}
	],
	"images":[
		{
			"mimeType":"image/png",
			"name":"CassetteTape_01a_normal",
			"uri":"CassetteTape_01a_normal.png"
		},
		{
			"mimeType":"image/png",
			"name":"CassetteTape_01a_metallicRoughness",
			"uri":"CassetteTape_01a_metallicRoughness.png"
		},
		{
			"mimeType":"image/png",
			"name":"CassetteTape_01a_baseColor",
			"uri":"CassetteTape_01a_baseColor.png"
		}
	],
	"accessors":[
		{
			"bufferView":0,
			"componentType":5126,
			"count":2679,
			"max":[
				0.05083705484867096,
				0.03449095040559769,
				0.005075765773653984
			],
			"min":[
				-0.05083705484867096,
				-0.03137703984975815,
				-0.005075765773653984
			],
			"type":"VEC3"
		},
		{
			"bufferView":1,
			"componentType":5126,
			"count":2679,
			"type":"VEC3"
		},
		{
			"bufferView":2,
			"componentType":5126,
			"count":2679,
			"type":"VEC2"
		},
		{
			"bufferView":3,
			"componentType":5126,
			"count":2679,
			"type":"VEC2"
		},
		{
			"bufferView":4,
			"componentType":5126,
			"count":2679,
			"type":"VEC2"
		},
		{
			"bufferView":5,
			"componentType":5126,
			"count":2679,
			"type":"VEC2"
		},
		{
			"bufferView":6,
			"componentType":5126,
			"count":2679,
			"type":"VEC2"
		},
		{
			"bufferView":7,
			"componentType":5123,
			"count":6642,
			"type":"SCALAR"
		}
	],
	"bufferViews":[
		{
			"buffer":0,
			"byteLength":32148,
			"byteOffset":0,
			"target":34962
		},
		{
			"buffer":0,
			"byteLength":32148,
			"byteOffset":32148,
			"target":34962
		},
		{
			"buffer":0,
			"byteLength":21432,
			"byteOffset":64296,
			"target":34962
		},
		{
			"buffer":0,
			"byteLength":21432,
			"byteOffset":85728,
			"target":34962
		},
		{
			"buffer":0,
			"byteLength":21432,
			"byteOffset":107160,
			"target":34962
		},
		{
			"buffer":0,
			"byteLength":21432,
			"byteOffset":128592,
			"target":34962
		},
		{
			"buffer":0,
			"byteLength":21432,
			"byteOffset":150024,
			"target":34962
		},
		{
			"buffer":0,
			"byteLength":13284,
			"byteOffset":171456,
			"target":34963
		}
	],
	"samplers":[
		{
			"magFilter":9729,
			"minFilter":9987
		}
	],
	"buffers":[
		{
			"byteLength":184740,
			"uri":"cas5.bin"
		}
	]
}
