{
	"asset":{
		"generator":"Khronos glTF Blender I/O v5.1.19",
		"version":"2.0"
	},
	"extensionsUsed":[
		"KHR_materials_specular",
		"KHR_materials_ior"
	],
	"scene":0,
	"scenes":[
		{
			"name":"Scene",
			"nodes":[
				0,
				1,
				2,
				3
			]
		}
	],
	"nodes":[
		{
			"mesh":0,
			"name":"Cylinder.023_hijau gayung_0",
			"rotation":[
				-0.8922886252403259,
				-0.02610945701599121,
				0.21790537238121033,
				0.39453351497650146
			],
			"scale":[
				1.3794397115707397,
				1.2332534790039062,
				1.2232072353363037
			],
			"translation":[
				5.950448989868164,
				0.4763401746749878,
				5.46354866027832
			]
		},
		{
			"mesh":1,
			"name":"Cylinder.030_hijau gayung_0",
			"rotation":[
				-0.8922886252403259,
				-0.02610945701599121,
				0.21790537238121033,
				0.39453351497650146
			],
			"scale":[
				1.3794397115707397,
				1.2332534790039062,
				1.2232072353363037
			],
			"translation":[
				5.950448989868164,
				0.4763401746749878,
				5.46354866027832
			]
		},
		{
			"mesh":2,
			"name":"Cylinder.031_Material.019_0",
			"rotation":[
				-0.49983757734298706,
				-0.5001624822616577,
				-0.5001626014709473,
				0.49983736872673035
			],
			"scale":[
				1.3529490232467651,
				1.3529491424560547,
				0.9663922786712646
			],
			"translation":[
				5.9638190269470215,
				0.47794902324676514,
				5.470308780670166
			]
		},
		{
			"mesh":3,
			"name":"ember_Material.025_0",
			"rotation":[
				-0.49983757734298706,
				-0.5001624822616577,
				-0.5001626014709473,
				0.49983736872673035
			],
			"scale":[
				1.399999976158142,
				1.4000000953674316,
				1
			],
			"translation":[
				5.9638190269470215,
				0.3473829925060272,
				5.470308780670166
			]
		}
	],
	"materials":[
		{
			"doubleSided":true,
			"extensions":{
				"KHR_materials_specular":{
					"specularColorFactor":[
						0.0,
						0.0,
						0.0
					]
				},
				"KHR_materials_ior":{
					"ior":1000
				}
			},
			"name":"hijau_gayung",
			"pbrMetallicRoughness":{
				"baseColorFactor":[
					0.029582200571894646,
					0.3841150104999542,
					0.1033250018954277,
					1
				],
				"metallicFactor":0,
				"roughnessFactor":0.9354965090751648
			}
		},
		{
			"alphaMode":"BLEND",
			"doubleSided":true,
			"extensions":{
				"KHR_materials_specular":{
					"specularColorFactor":[
						0.0,
						0.0,
						0.0
					]
				},
				"KHR_materials_ior":{
					"ior":1000
				}
			},
			"name":"Material.019",
			"pbrMetallicRoughness":{
				"baseColorFactor":[
					0.32996195554733276,
					0.38350141048431396,
					0.5978448987007141,
					0.4739062190055847
				],
				"metallicFactor":0,
				"roughnessFactor":0.8040408492088318
			}
		},
		{
			"doubleSided":true,
			"extensions":{
				"KHR_materials_specular":{
					"specularColorFactor":[
						0.0,
						0.0,
						0.0
					]
				},
				"KHR_materials_ior":{
					"ior":1000
				}
			},
			"name":"Material.025",
			"pbrMetallicRoughness":{
				"baseColorFactor":[
					0.8009399771690369,
					0.03113030083477497,
					0.14194299280643463,
					1
				],
				"metallicFactor":0,
				"roughnessFactor":0.9546542167663574
			}
		}
	],
	"meshes":[
		{
			"name":"Cylinder.023_hijau gayung_0",
			"primitives":[
				{
					"attributes":{
						"POSITION":0,
						"NORMAL":1,
						"TEXCOORD_0":2
					},
					"indices":3,
					"material":0
				}
			]
		},
		{
			"name":"Cylinder.030_hijau gayung_0",
			"primitives":[
				{
					"attributes":{
						"POSITION":4,
						"NORMAL":5,
						"TEXCOORD_0":6
					},
					"indices":7,
					"material":0
				}
			]
		},
		{
			"name":"Cylinder.031_Material.019_0",
			"primitives":[
				{
					"attributes":{
						"POSITION":8,
						"NORMAL":9,
						"TEXCOORD_0":10
					},
					"indices":11,
					"material":1
				}
			]
		},
		{
			"name":"ember_Material.025_0",
			"primitives":[
				{
					"attributes":{
						"POSITION":12,
						"NORMAL":13,
						"TEXCOORD_0":14
					},
					"indices":15,
					"material":2
				}
			]
		}
	],
	"accessors":[
		{
			"bufferView":0,
			"componentType":5126,
			"count":540,
			"max":[
				0.11530058085918427,
				0.11530056595802307,
				0.11509893834590912
			],
			"min":[
				-0.11530056595802307,
				-0.11530055850744247,
				-0.10989880561828613
			],
			"type":"VEC3"
		},
		{
			"bufferView":1,
			"componentType":5126,
			"count":540,
			"type":"VEC3"
		},
		{
			"bufferView":2,
			"componentType":5126,
			"count":540,
			"type":"VEC2"
		},
		{
			"bufferView":3,
			"componentType":5123,
			"count":1908,
			"type":"SCALAR"
		},
		{
			"bufferView":4,
			"componentType":5126,
			"count":78,
			"max":[
				0.33095234632492065,
				0.051283933222293854,
				0.12763762474060059
			],
			"min":[
				0.09620001912117004,
				-0.05128393694758415,
				0.05595020949840546
			],
			"type":"VEC3"
		},
		{
			"bufferView":5,
			"componentType":5126,
			"count":78,
			"type":"VEC3"
		},
		{
			"bufferView":6,
			"componentType":5126,
			"count":78,
			"type":"VEC2"
		},
		{
			"bufferView":7,
			"componentType":5123,
			"count":312,
			"type":"SCALAR"
		},
		{
			"bufferView":8,
			"componentType":5126,
			"count":32,
			"max":[
				0.2987675368785858,
				0.2987675070762634,
				2.384185791015625e-07
			],
			"min":[
				-0.2987675368785858,
				-0.2987675666809082,
				2.384185791015625e-07
			],
			"type":"VEC3"
		},
		{
			"bufferView":9,
			"componentType":5126,
			"count":32,
			"type":"VEC3"
		},
		{
			"bufferView":10,
			"componentType":5126,
			"count":32,
			"type":"VEC2"
		},
		{
			"bufferView":11,
			"componentType":5123,
			"count":90,
			"type":"SCALAR"
		},
		{
			"bufferView":12,
			"componentType":5126,
			"count":670,
			"max":[
				0.32358935475349426,
				0.32358935475349426,
				0.26050087809562683
			],
			"min":[
				-0.32358941435813904,
				-0.32358941435813904,
				-0.2605009078979492
			],
			"type":"VEC3"
		},
		{
			"bufferView":13,
			"componentType":5126,
			"count":670,
			"type":"VEC3"
		},
		{
			"bufferView":14,
			"componentType":5126,
			"count":670,
			"type":"VEC2"
		},
		{
			"bufferView":15,
			"componentType":5123,
			"count":1434,
			"type":"SCALAR"
		}
	],
	"bufferViews":[
		{
			"buffer":0,
			"byteLength":6480,
			"byteOffset":0,
			"target":34962
		},
		{
			"buffer":0,
			"byteLength":6480,
			"byteOffset":6480,
			"target":34962
		},
		{
			"buffer":0,
			"byteLength":4320,
			"byteOffset":12960,
			"target":34962
		},
		{
			"buffer":0,
			"byteLength":3816,
			"byteOffset":17280,
			"target":34963
		},
		{
			"buffer":0,
			"byteLength":936,
			"byteOffset":21096,
			"target":34962
		},
		{
			"buffer":0,
			"byteLength":936,
			"byteOffset":22032,
			"target":34962
		},
		{
			"buffer":0,
			"byteLength":624,
			"byteOffset":22968,
			"target":34962
		},
		{
			"buffer":0,
			"byteLength":624,
			"byteOffset":23592,
			"target":34963
		},
		{
			"buffer":0,
			"byteLength":384,
			"byteOffset":24216,
			"target":34962
		},
		{
			"buffer":0,
			"byteLength":384,
			"byteOffset":24600,
			"target":34962
		},
		{
			"buffer":0,
			"byteLength":256,
			"byteOffset":24984,
			"target":34962
		},
		{
			"buffer":0,
			"byteLength":180,
			"byteOffset":25240,
			"target":34963
		},
		{
			"buffer":0,
			"byteLength":8040,
			"byteOffset":25420,
			"target":34962
		},
		{
			"buffer":0,
			"byteLength":8040,
			"byteOffset":33460,
			"target":34962
		},
		{
			"buffer":0,
			"byteLength":5360,
			"byteOffset":41500,
			"target":34962
		},
		{
			"buffer":0,
			"byteLength":2868,
			"byteOffset":46860,
			"target":34963
		}
	],
	"buffers":[
		{
			"byteLength":49728,
			"uri":"badya.bin"
		}
	]
}
