{
	"asset":{
		"generator":"Khronos glTF Blender I/O v5.1.19",
		"version":"2.0"
	},
	"extensionsUsed":[
		"KHR_materials_specular",
		"KHR_materials_ior"
	],
	"scene":0,
	"scenes":[
		{
			"name":"Scene",
			"nodes":[
				8
			]
		}
	],
	"nodes":[
		{
			"mesh":0,
			"name":"Object_2"
		},
		{
			"mesh":1,
			"name":"Object_3"
		},
		{
			"mesh":2,
			"name":"Object_4.001"
		},
		{
			"mesh":3,
			"name":"Object_5.001"
		},
		{
			"mesh":4,
			"name":"Object_6.001"
		},
		{
			"mesh":5,
			"name":"Object_7"
		},
		{
			"mesh":6,
			"name":"Object_8"
		},
		{
			"mesh":7,
			"name":"Object_9"
		},
		{
			"children":[
				0,
				1,
				2,
				3,
				4,
				5,
				6,
				7
			],
			"name":"Sketchfab Model.011",
			"rotation":[
				-0.0010543764801695943,
				-0.7071058750152588,
				-0.7071061730384827,
				0.0010543761309236288
			],
			"scale":[
				0.05000000074505806,
				0.05000000074505806,
				0.05000000074505806
			],
			"translation":[
				-6.507128715515137,
				0.4987398386001587,
				1.0248531103134155
			]
		}
	],
	"materials":[
		{
			"doubleSided":true,
			"extensions":{
				"KHR_materials_specular":{
					"specularColorTexture":{
						"index":0
					}
				},
				"KHR_materials_ior":{
					"ior":1000
				}
			},
			"name":"Cesto_Poly_01",
			"normalTexture":{
				"index":1
			},
			"occlusionTexture":{
				"index":2
			},
			"pbrMetallicRoughness":{
				"baseColorTexture":{
					"index":3
				},
				"metallicFactor":0,
				"metallicRoughnessTexture":{
					"index":2
				}
			}
		},
		{
			"doubleSided":true,
			"extensions":{
				"KHR_materials_specular":{
					"specularColorTexture":{
						"index":4
					}
				},
				"KHR_materials_ior":{
					"ior":1000
				}
			},
			"name":"Cesto_Poly_02",
			"normalTexture":{
				"index":5
			},
			"occlusionTexture":{
				"index":6
			},
			"pbrMetallicRoughness":{
				"baseColorTexture":{
					"index":7
				},
				"metallicFactor":0,
				"metallicRoughnessTexture":{
					"index":6
				}
			}
		},
		{
			"doubleSided":true,
			"extensions":{
				"KHR_materials_specular":{
					"specularColorTexture":{
						"index":8
					}
				},
				"KHR_materials_ior":{
					"ior":1000
				}
			},
			"name":"Cesto_Poly_03",
			"normalTexture":{
				"index":9
			},
			"occlusionTexture":{
				"index":10
			},
			"pbrMetallicRoughness":{
				"baseColorTexture":{
					"index":11
				},
				"metallicFactor":0,
				"metallicRoughnessTexture":{
					"index":10
				}
			}
		},
		{
			"doubleSided":true,
			"extensions":{
				"KHR_materials_specular":{
					"specularColorTexture":{
						"index":12
					}
				},
				"KHR_materials_ior":{
					"ior":1000
				}
			},
			"name":"Cesto_Poly_04",
			"normalTexture":{
				"index":13
			},
			"occlusionTexture":{
				"index":14
			},
			"pbrMetallicRoughness":{
				"baseColorTexture":{
					"index":15
				},
				"metallicFactor":0,
				"metallicRoughnessTexture":{
					"index":14
				}
			}
		}
	],
	"meshes":[
		{
			"name":"Object_0.004",
			"primitives":[
				{
					"attributes":{
						"POSITION":0,
						"NORMAL":1,
						"TEXCOORD_0":2
					},
					"indices":3,
					"material":0
				}
			]
		},
		{
			"name":"Object_1.001",
			"primitives":[
				{
					"attributes":{
						"POSITION":4,
						"NORMAL":5,
						"TEXCOORD_0":6
					},
					"indices":7,
					"material":0
				}
			]
		},
		{
			"name":"Object_2.001",
			"primitives":[
				{
					"attributes":{
						"POSITION":8,
						"NORMAL":9,
						"TEXCOORD_0":10
					},
					"indices":11,
					"material":1
				}
			]
		},
		{
			"name":"Object_3",
			"primitives":[
				{
					"attributes":{
						"POSITION":12,
						"NORMAL":13,
						"TEXCOORD_0":14
					},
					"indices":15,
					"material":1
				}
			]
		},
		{
			"name":"Object_4",
			"primitives":[
				{
					"attributes":{
						"POSITION":16,
						"NORMAL":17,
						"TEXCOORD_0":18
					},
					"indices":19,
					"material":2
				}
			]
		},
		{
			"name":"Object_5",
			"primitives":[
				{
					"attributes":{
						"POSITION":20,
						"NORMAL":21,
						"TEXCOORD_0":22
					},
					"indices":23,
					"material":2
				}
			]
		},
		{
			"name":"Object_6",
			"primitives":[
				{
					"attributes":{
						"POSITION":24,
						"NORMAL":25,
						"TEXCOORD_0":26
					},
					"indices":27,
					"material":3
				}
			]
		},
		{
			"name":"Object_7",
			"primitives":[
				{
					"attributes":{
						"POSITION":28,
						"NORMAL":29,
						"TEXCOORD_0":30
					},
					"indices":31,
					"material":3
				}
			]
		}
	],
	"textures":[
		{
			"sampler":0,
			"source":0
		},
		{
			"sampler":0,
			"source":1
		},
		{
			"sampler":0,
			"source":2
		},
		{
			"sampler":0,
			"source":3
		},
		{
			"sampler":0,
			"source":0
		},
		{
			"sampler":0,
			"source":1
		},
		{
			"sampler":0,
			"source":2
		},
		{
			"sampler":0,
			"source":4
		},
		{
			"sampler":0,
			"source":0
		},
		{
			"sampler":0,
			"source":1
		},
		{
			"sampler":0,
			"source":2
		},
		{
			"sampler":0,
			"source":5
		},
		{
			"sampler":0,
			"source":0
		},
		{
			"sampler":0,
			"source":1
		},
		{
			"sampler":0,
			"source":2
		},
		{
			"sampler":0,
			"source":6
		}
	],
	"images":[
		{
			"mimeType":"image/png",
			"name":"Cesto_Poly_01_specularGlossiness",
			"uri":"Cesto_Poly_01_specularGlossiness.png"
		},
		{
			"mimeType":"image/png",
			"name":"Cesto_Poly_01_normal",
			"uri":"Cesto_Poly_01_normal.png"
		},
		{
			"mimeType":"image/png",
			"name":"Cesto_Poly_01_occlusion-Cesto_Poly_01_specularGlossiness.png",
			"uri":"Cesto_Poly_01_occlusion-Cesto_Poly_01_specularGlossiness.png.png"
		},
		{
			"mimeType":"image/jpeg",
			"name":"Cesto_Poly_01_diffuse",
			"uri":"Cesto_Poly_01_diffuse.jpg"
		},
		{
			"mimeType":"image/jpeg",
			"name":"Cesto_Poly_02_diffuse",
			"uri":"Cesto_Poly_02_diffuse.jpg"
		},
		{
			"mimeType":"image/jpeg",
			"name":"Cesto_Poly_03_diffuse",
			"uri":"Cesto_Poly_03_diffuse.jpg"
		},
		{
			"mimeType":"image/jpeg",
			"name":"Cesto_Poly_04_diffuse",
			"uri":"Cesto_Poly_04_diffuse.jpg"
		}
	],
	"accessors":[
		{
			"bufferView":0,
			"componentType":5126,
			"count":67459,
			"max":[
				8.472923278808594,
				12.936050415039062,
				0
			],
			"min":[
				-8.811050415039062,
				-12.936840057373047,
				-10
			],
			"type":"VEC3"
		},
		{
			"bufferView":1,
			"componentType":5126,
			"count":67459,
			"type":"VEC3"
		},
		{
			"bufferView":2,
			"componentType":5126,
			"count":67459,
			"type":"VEC2"
		},
		{
			"bufferView":3,
			"componentType":5125,
			"count":305232,
			"type":"SCALAR"
		},
		{
			"bufferView":4,
			"componentType":5126,
			"count":28021,
			"max":[
				8.359743118286133,
				12.325467109680176,
				0
			],
			"min":[
				-8.740974426269531,
				-12.838891983032227,
				-10
			],
			"type":"VEC3"
		},
		{
			"bufferView":5,
			"componentType":5126,
			"count":28021,
			"type":"VEC3"
		},
		{
			"bufferView":6,
			"componentType":5126,
			"count":28021,
			"type":"VEC2"
		},
		{
			"bufferView":7,
			"componentType":5123,
			"count":119649,
			"type":"SCALAR"
		},
		{
			"bufferView":8,
			"componentType":5126,
			"count":67410,
			"max":[
				8.472923278808594,
				12.936050415039062,
				4.425469875335693
			],
			"min":[
				-8.811050415039062,
				-12.936840057373047,
				-5.574530124664307
			],
			"type":"VEC3"
		},
		{
			"bufferView":9,
			"componentType":5126,
			"count":67410,
			"type":"VEC3"
		},
		{
			"bufferView":10,
			"componentType":5126,
			"count":67410,
			"type":"VEC2"
		},
		{
			"bufferView":11,
			"componentType":5125,
			"count":305232,
			"type":"SCALAR"
		},
		{
			"bufferView":12,
			"componentType":5126,
			"count":28046,
			"max":[
				8.359743118286133,
				12.325467109680176,
				4.425469875335693
			],
			"min":[
				-8.740974426269531,
				-12.838891983032227,
				-5.574530124664307
			],
			"type":"VEC3"
		},
		{
			"bufferView":13,
			"componentType":5126,
			"count":28046,
			"type":"VEC3"
		},
		{
			"bufferView":14,
			"componentType":5126,
			"count":28046,
			"type":"VEC2"
		},
		{
			"bufferView":15,
			"componentType":5123,
			"count":119649,
			"type":"SCALAR"
		},
		{
			"bufferView":16,
			"componentType":5126,
			"count":67456,
			"max":[
				8.472923278808594,
				12.936050415039062,
				8.956615447998047
			],
			"min":[
				-8.811050415039062,
				-12.936840057373047,
				-1.0433850288391113
			],
			"type":"VEC3"
		},
		{
			"bufferView":17,
			"componentType":5126,
			"count":67456,
			"type":"VEC3"
		},
		{
			"bufferView":18,
			"componentType":5126,
			"count":67456,
			"type":"VEC2"
		},
		{
			"bufferView":19,
			"componentType":5125,
			"count":305232,
			"type":"SCALAR"
		},
		{
			"bufferView":20,
			"componentType":5126,
			"count":28039,
			"max":[
				8.359743118286133,
				12.325467109680176,
				8.956615447998047
			],
			"min":[
				-8.740974426269531,
				-12.838891983032227,
				-1.0433850288391113
			],
			"type":"VEC3"
		},
		{
			"bufferView":21,
			"componentType":5126,
			"count":28039,
			"type":"VEC3"
		},
		{
			"bufferView":22,
			"componentType":5126,
			"count":28039,
			"type":"VEC2"
		},
		{
			"bufferView":23,
			"componentType":5123,
			"count":119649,
			"type":"SCALAR"
		},
		{
			"bufferView":24,
			"componentType":5126,
			"count":67347,
			"max":[
				-1.1525119543075562,
				38.650054931640625,
				0
			],
			"min":[
				-27.99807357788086,
				11.796575546264648,
				-10
			],
			"type":"VEC3"
		},
		{
			"bufferView":25,
			"componentType":5126,
			"count":67347,
			"type":"VEC3"
		},
		{
			"bufferView":26,
			"componentType":5126,
			"count":67347,
			"type":"VEC2"
		},
		{
			"bufferView":27,
			"componentType":5125,
			"count":305220,
			"type":"SCALAR"
		},
		{
			"bufferView":28,
			"componentType":5126,
			"count":28030,
			"max":[
				-1.2346839904785156,
				37.496700286865234,
				0
			],
			"min":[
				-26.95911407470703,
				11.866710662841797,
				-10
			],
			"type":"VEC3"
		},
		{
			"bufferView":29,
			"componentType":5126,
			"count":28030,
			"type":"VEC3"
		},
		{
			"bufferView":30,
			"componentType":5126,
			"count":28030,
			"type":"VEC2"
		},
		{
			"bufferView":31,
			"componentType":5123,
			"count":119661,
			"type":"SCALAR"
		}
	],
	"bufferViews":[
		{
			"buffer":0,
			"byteLength":809508,
			"byteOffset":0,
			"target":34962
		},
		{
			"buffer":0,
			"byteLength":809508,
			"byteOffset":809508,
			"target":34962
		},
		{
			"buffer":0,
			"byteLength":539672,
			"byteOffset":1619016,
			"target":34962
		},
		{
			"buffer":0,
			"byteLength":1220928,
			"byteOffset":2158688,
			"target":34963
		},
		{
			"buffer":0,
			"byteLength":336252,
			"byteOffset":3379616,
			"target":34962
		},
		{
			"buffer":0,
			"byteLength":336252,
			"byteOffset":3715868,
			"target":34962
		},
		{
			"buffer":0,
			"byteLength":224168,
			"byteOffset":4052120,
			"target":34962
		},
		{
			"buffer":0,
			"byteLength":239298,
			"byteOffset":4276288,
			"target":34963
		},
		{
			"buffer":0,
			"byteLength":808920,
			"byteOffset":4515588,
			"target":34962
		},
		{
			"buffer":0,
			"byteLength":808920,
			"byteOffset":5324508,
			"target":34962
		},
		{
			"buffer":0,
			"byteLength":539280,
			"byteOffset":6133428,
			"target":34962
		},
		{
			"buffer":0,
			"byteLength":1220928,
			"byteOffset":6672708,
			"target":34963
		},
		{
			"buffer":0,
			"byteLength":336552,
			"byteOffset":7893636,
			"target":34962
		},
		{
			"buffer":0,
			"byteLength":336552,
			"byteOffset":8230188,
			"target":34962
		},
		{
			"buffer":0,
			"byteLength":224368,
			"byteOffset":8566740,
			"target":34962
		},
		{
			"buffer":0,
			"byteLength":239298,
			"byteOffset":8791108,
			"target":34963
		},
		{
			"buffer":0,
			"byteLength":809472,
			"byteOffset":9030408,
			"target":34962
		},
		{
			"buffer":0,
			"byteLength":809472,
			"byteOffset":9839880,
			"target":34962
		},
		{
			"buffer":0,
			"byteLength":539648,
			"byteOffset":10649352,
			"target":34962
		},
		{
			"buffer":0,
			"byteLength":1220928,
			"byteOffset":11189000,
			"target":34963
		},
		{
			"buffer":0,
			"byteLength":336468,
			"byteOffset":12409928,
			"target":34962
		},
		{
			"buffer":0,
			"byteLength":336468,
			"byteOffset":12746396,
			"target":34962
		},
		{
			"buffer":0,
			"byteLength":224312,
			"byteOffset":13082864,
			"target":34962
		},
		{
			"buffer":0,
			"byteLength":239298,
			"byteOffset":13307176,
			"target":34963
		},
		{
			"buffer":0,
			"byteLength":808164,
			"byteOffset":13546476,
			"target":34962
		},
		{
			"buffer":0,
			"byteLength":808164,
			"byteOffset":14354640,
			"target":34962
		},
		{
			"buffer":0,
			"byteLength":538776,
			"byteOffset":15162804,
			"target":34962
		},
		{
			"buffer":0,
			"byteLength":1220880,
			"byteOffset":15701580,
			"target":34963
		},
		{
			"buffer":0,
			"byteLength":336360,
			"byteOffset":16922460,
			"target":34962
		},
		{
			"buffer":0,
			"byteLength":336360,
			"byteOffset":17258820,
			"target":34962
		},
		{
			"buffer":0,
			"byteLength":224240,
			"byteOffset":17595180,
			"target":34962
		},
		{
			"buffer":0,
			"byteLength":239322,
			"byteOffset":17819420,
			"target":34963
		}
	],
	"samplers":[
		{
			"magFilter":9729,
			"minFilter":9987
		}
	],
	"buffers":[
		{
			"byteLength":18058744,
			"uri":"korzv2.bin"
		}
	]
}
