{
	"asset":{
		"generator":"Khronos glTF Blender I/O v5.1.19",
		"version":"2.0"
	},
	"scene":0,
	"scenes":[
		{
			"name":"Scene",
			"nodes":[
				1
			]
		}
	],
	"nodes":[
		{
			"mesh":0,
			"name":"\ufffd\ufffd\ufffd\ufffd\ufffd\ufffd\ufffd\ufffd\ufffd\ufffd\ufffd\ufffd\ufffd\ufffd.002_\ufffd\ufffd\ufffd\ufffd\ufffd\ufffd\ufffd\ufffd\ufffd\ufffd\ufffd\ufffd\ufffd\ufffd \ufffd\ufffd\ufffd\ufffd\ufffd\ufffd\ufffd\ufffd\ufffd\ufffd\ufffd\ufffd\ufffd\ufffd_0"
		},
		{
			"children":[
				0
			],
			"name":"\ufffd\ufffd\ufffd\ufffd\ufffd\ufffd\ufffd\ufffd\ufffd\ufffd\ufffd\ufffd\ufffd\ufffd.015",
			"rotation":[
				-0.6918017268180847,
				0.1463233232498169,
				0.14632338285446167,
				0.6918014883995056
			],
			"translation":[
				-12.314258575439453,
				0,
				-1.8172779083251953
			]
		}
	],
	"materials":[
		{
			"doubleSided":true,
			"name":"material_21",
			"pbrMetallicRoughness":{
				"baseColorFactor":[
					0.0032003300730139017,
					0.031063299626111984,
					0.0030280600767582655,
					1
				],
				"metallicFactor":0,
				"roughnessFactor":0.9948312044143677
			}
		}
	],
	"meshes":[
		{
			"name":"\ufffd\ufffd\ufffd\ufffd\ufffd\ufffd\ufffd\ufffd\ufffd\ufffd\ufffd\ufffd\ufffd\ufffd.002_\ufffd\ufffd\ufffd\ufffd\ufffd\ufffd\ufffd\ufffd\ufffd\ufffd\ufffd\ufffd\ufffd\ufffd \ufffd\ufffd\ufffd\ufffd\ufffd\ufffd\ufffd\ufffd\ufffd\ufffd\ufffd\ufffd\ufffd\ufffd_0",
			"primitives":[
				{
					"attributes":{
						"POSITION":0,
						"NORMAL":1,
						"TEXCOORD_0":2
					},
					"indices":3,
					"material":0
				}
			]
		}
	],
	"accessors":[
		{
			"bufferView":0,
			"componentType":5126,
			"count":273,
			"max":[
				1.6722352504730225,
				-7.412042140960693,
				0.33588850498199463
			],
			"min":[
				1.5182420015335083,
				-7.60617733001709,
				0.19877135753631592
			],
			"type":"VEC3"
		},
		{
			"bufferView":1,
			"componentType":5126,
			"count":273,
			"type":"VEC3"
		},
		{
			"bufferView":2,
			"componentType":5126,
			"count":273,
			"type":"VEC2"
		},
		{
			"bufferView":3,
			"componentType":5123,
			"count":1362,
			"type":"SCALAR"
		}
	],
	"bufferViews":[
		{
			"buffer":0,
			"byteLength":3276,
			"byteOffset":0,
			"target":34962
		},
		{
			"buffer":0,
			"byteLength":3276,
			"byteOffset":3276,
			"target":34962
		},
		{
			"buffer":0,
			"byteLength":2184,
			"byteOffset":6552,
			"target":34962
		},
		{
			"buffer":0,
			"byteLength":2724,
			"byteOffset":8736,
			"target":34963
		}
	],
	"buffers":[
		{
			"byteLength":11460,
			"uri":"bottle.bin"
		}
	]
}
