{
	"asset":{
		"generator":"Khronos glTF Blender I/O v5.1.19",
		"version":"2.0"
	},
	"scene":0,
	"scenes":[
		{
			"name":"Scene",
			"nodes":[
				0
			]
		}
	],
	"nodes":[
		{
			"mesh":0,
			"name":"Sketchfab Model.013",
			"rotation":[
				0,
				0.8265259265899658,
				0,
				0.5628988146781921
			],
			"scale":[
				3.0000009536743164,
				3,
				3.0000009536743164
			],
			"translation":[
				3.3132855892181396,
				0.6976328492164612,
				3.034909248352051
			]
		}
	],
	"materials":[
		{
			"name":"Material_0.042",
			"pbrMetallicRoughness":{
				"baseColorTexture":{
					"index":0
				},
				"metallicFactor":0
			}
		}
	],
	"meshes":[
		{
			"name":"Object_0.006",
			"primitives":[
				{
					"attributes":{
						"POSITION":0,
						"NORMAL":1,
						"TEXCOORD_0":2
					},
					"indices":3,
					"material":0
				}
			]
		}
	],
	"textures":[
		{
			"sampler":0,
			"source":0
		}
	],
	"images":[
		{
			"mimeType":"image/jpeg",
			"name":"Material_0.042_baseColor",
			"uri":"Material_0.042_baseColor.jpg"
		}
	],
	"accessors":[
		{
			"bufferView":0,
			"componentType":5126,
			"count":37541,
			"max":[
				0.17105083167552948,
				0.19576027989387512,
				0.2480292171239853
			],
			"min":[
				-0.17807315289974213,
				-0.24745534360408783,
				-0.22461368143558502
			],
			"type":"VEC3"
		},
		{
			"bufferView":1,
			"componentType":5126,
			"count":37541,
			"type":"VEC3"
		},
		{
			"bufferView":2,
			"componentType":5126,
			"count":37541,
			"type":"VEC2"
		},
		{
			"bufferView":3,
			"componentType":5123,
			"count":202152,
			"type":"SCALAR"
		}
	],
	"bufferViews":[
		{
			"buffer":0,
			"byteLength":450492,
			"byteOffset":0,
			"target":34962
		},
		{
			"buffer":0,
			"byteLength":450492,
			"byteOffset":450492,
			"target":34962
		},
		{
			"buffer":0,
			"byteLength":300328,
			"byteOffset":900984,
			"target":34962
		},
		{
			"buffer":0,
			"byteLength":404304,
			"byteOffset":1201312,
			"target":34963
		}
	],
	"samplers":[
		{
			"magFilter":9729,
			"minFilter":9987
		}
	],
	"buffers":[
		{
			"byteLength":1605616,
			"uri":"korzina.bin"
		}
	]
}
