{
	"asset":{
		"generator":"Khronos glTF Blender I/O v5.1.19",
		"version":"2.0"
	},
	"scene":0,
	"scenes":[
		{
			"name":"Scene",
			"nodes":[
				0
			]
		}
	],
	"nodes":[
		{
			"mesh":0,
			"name":"Long Trash Bag Pile",
			"translation":[
				7.50449275970459,
				0,
				-6.884647846221924
			]
		}
	],
	"materials":[
		{
			"name":"Long Trash Bag Pile",
			"normalTexture":{
				"index":0
			},
			"pbrMetallicRoughness":{
				"baseColorTexture":{
					"index":1
				},
				"metallicFactor":0,
				"roughnessFactor":0.34545454382896423
			}
		}
	],
	"meshes":[
		{
			"name":"Mesh_0.031",
			"primitives":[
				{
					"attributes":{
						"POSITION":0,
						"NORMAL":1,
						"TEXCOORD_0":2
					},
					"indices":3,
					"material":0
				}
			]
		}
	],
	"textures":[
		{
			"sampler":0,
			"source":0
		},
		{
			"sampler":0,
			"source":1
		}
	],
	"images":[
		{
			"mimeType":"image/png",
			"name":"Long Trash Bag Pile Normal",
			"uri":"Long%20Trash%20Bag%20Pile%20Normal.png"
		},
		{
			"mimeType":"image/png",
			"name":"Long Trash Bag Pile Diffuse",
			"uri":"Long%20Trash%20Bag%20Pile%20Diffuse.png"
		}
	],
	"accessors":[
		{
			"bufferView":0,
			"componentType":5126,
			"count":67891,
			"max":[
				1.991868019104004,
				1.1134040355682373,
				1.5045301914215088
			],
			"min":[
				-2.1915106773376465,
				-1.1175870895385742e-08,
				-0.004127442836761475
			],
			"type":"VEC3"
		},
		{
			"bufferView":1,
			"componentType":5126,
			"count":67891,
			"type":"VEC3"
		},
		{
			"bufferView":2,
			"componentType":5126,
			"count":67891,
			"type":"VEC2"
		},
		{
			"bufferView":3,
			"componentType":5125,
			"count":349677,
			"type":"SCALAR"
		}
	],
	"bufferViews":[
		{
			"buffer":0,
			"byteLength":814692,
			"byteOffset":0,
			"target":34962
		},
		{
			"buffer":0,
			"byteLength":814692,
			"byteOffset":814692,
			"target":34962
		},
		{
			"buffer":0,
			"byteLength":543128,
			"byteOffset":1629384,
			"target":34962
		},
		{
			"buffer":0,
			"byteLength":1398708,
			"byteOffset":2172512,
			"target":34963
		}
	],
	"samplers":[
		{
			"magFilter":9729,
			"minFilter":9987
		}
	],
	"buffers":[
		{
			"byteLength":3571220,
			"uri":"trash.bin"
		}
	]
}
