{
	"asset":{
		"generator":"Khronos glTF Blender I/O v5.1.19",
		"version":"2.0"
	},
	"scene":0,
	"scenes":[
		{
			"name":"Scene",
			"nodes":[
				0,
				1,
				2
			]
		}
	],
	"nodes":[
		{
			"mesh":0,
			"name":"Sketchfab Model.008",
			"rotation":[
				-0.6481789350509644,
				0.2826025187969208,
				0.28260260820388794,
				0.6481786966323853
			],
			"scale":[
				0.10000000149011612,
				0.10000000149011612,
				0.10000000149011612
			],
			"translation":[
				-7.921028137207031,
				0,
				6.293046474456787
			]
		},
		{
			"mesh":1,
			"name":"Sketchfab Model.009",
			"rotation":[
				-0.70710688829422,
				0,
				0,
				0.7071066498756409
			],
			"scale":[
				0.10000000149011612,
				0.09999999403953552,
				0.09999999403953552
			],
			"translation":[
				-9.203760147094727,
				0,
				5.8354010581970215
			]
		},
		{
			"mesh":2,
			"name":"Sketchfab Model.010",
			"rotation":[
				-0.6714698672294617,
				0.22164948284626007,
				0.22164957225322723,
				0.671469509601593
			],
			"scale":[
				0.10000000894069672,
				0.10000001639127731,
				0.10000001639127731
			],
			"translation":[
				-9.297465324401855,
				0,
				6.610432147979736
			]
		}
	],
	"materials":[
		{
			"doubleSided":true,
			"name":"material_0",
			"normalTexture":{
				"index":0
			},
			"pbrMetallicRoughness":{
				"baseColorTexture":{
					"index":1
				},
				"metallicFactor":0,
				"roughnessFactor":0.9076558351516724
			}
		},
		{
			"doubleSided":true,
			"name":"material_0.001",
			"normalTexture":{
				"index":2
			},
			"pbrMetallicRoughness":{
				"baseColorTexture":{
					"index":3
				},
				"metallicFactor":0,
				"roughnessFactor":0.9076558351516724
			}
		},
		{
			"doubleSided":true,
			"name":"material_0.002",
			"normalTexture":{
				"index":4
			},
			"pbrMetallicRoughness":{
				"baseColorTexture":{
					"index":5
				},
				"metallicFactor":0,
				"roughnessFactor":0.9076558351516724
			}
		}
	],
	"meshes":[
		{
			"name":"Object_0.001",
			"primitives":[
				{
					"attributes":{
						"POSITION":0,
						"NORMAL":1,
						"TEXCOORD_0":2
					},
					"indices":3,
					"material":0
				}
			]
		},
		{
			"name":"Object_0.002",
			"primitives":[
				{
					"attributes":{
						"POSITION":4,
						"NORMAL":5,
						"TEXCOORD_0":6
					},
					"indices":3,
					"material":1
				}
			]
		},
		{
			"name":"Object_0.003",
			"primitives":[
				{
					"attributes":{
						"POSITION":7,
						"NORMAL":8,
						"TEXCOORD_0":9
					},
					"indices":3,
					"material":2
				}
			]
		}
	],
	"textures":[
		{
			"sampler":0,
			"source":0
		},
		{
			"sampler":0,
			"source":1
		},
		{
			"sampler":0,
			"source":0
		},
		{
			"sampler":0,
			"source":1
		},
		{
			"sampler":0,
			"source":0
		},
		{
			"sampler":0,
			"source":1
		}
	],
	"images":[
		{
			"mimeType":"image/png",
			"name":"material_0_normal",
			"uri":"material_0_normal.png"
		},
		{
			"mimeType":"image/jpeg",
			"name":"material_0_baseColor",
			"uri":"material_0_baseColor.jpg"
		}
	],
	"accessors":[
		{
			"bufferView":0,
			"componentType":5126,
			"count":1737,
			"max":[
				9.396356582641602,
				9.127573013305664,
				9.646471977233887
			],
			"min":[
				-11.91673755645752,
				-11.210851669311523,
				-0.060139000415802
			],
			"type":"VEC3"
		},
		{
			"bufferView":1,
			"componentType":5126,
			"count":1737,
			"type":"VEC3"
		},
		{
			"bufferView":2,
			"componentType":5126,
			"count":1737,
			"type":"VEC2"
		},
		{
			"bufferView":3,
			"componentType":5123,
			"count":7674,
			"type":"SCALAR"
		},
		{
			"bufferView":4,
			"componentType":5126,
			"count":1737,
			"max":[
				9.396356582641602,
				9.127573013305664,
				9.646471977233887
			],
			"min":[
				-11.91673755645752,
				-11.210851669311523,
				-0.060139000415802
			],
			"type":"VEC3"
		},
		{
			"bufferView":5,
			"componentType":5126,
			"count":1737,
			"type":"VEC3"
		},
		{
			"bufferView":6,
			"componentType":5126,
			"count":1737,
			"type":"VEC2"
		},
		{
			"bufferView":7,
			"componentType":5126,
			"count":1737,
			"max":[
				9.396356582641602,
				9.127573013305664,
				9.646471977233887
			],
			"min":[
				-11.91673755645752,
				-11.210851669311523,
				-0.060139000415802
			],
			"type":"VEC3"
		},
		{
			"bufferView":8,
			"componentType":5126,
			"count":1737,
			"type":"VEC3"
		},
		{
			"bufferView":9,
			"componentType":5126,
			"count":1737,
			"type":"VEC2"
		}
	],
	"bufferViews":[
		{
			"buffer":0,
			"byteLength":20844,
			"byteOffset":0,
			"target":34962
		},
		{
			"buffer":0,
			"byteLength":20844,
			"byteOffset":20844,
			"target":34962
		},
		{
			"buffer":0,
			"byteLength":13896,
			"byteOffset":41688,
			"target":34962
		},
		{
			"buffer":0,
			"byteLength":15348,
			"byteOffset":55584,
			"target":34963
		},
		{
			"buffer":0,
			"byteLength":20844,
			"byteOffset":70932,
			"target":34962
		},
		{
			"buffer":0,
			"byteLength":20844,
			"byteOffset":91776,
			"target":34962
		},
		{
			"buffer":0,
			"byteLength":13896,
			"byteOffset":112620,
			"target":34962
		},
		{
			"buffer":0,
			"byteLength":20844,
			"byteOffset":126516,
			"target":34962
		},
		{
			"buffer":0,
			"byteLength":20844,
			"byteOffset":147360,
			"target":34962
		},
		{
			"buffer":0,
			"byteLength":13896,
			"byteOffset":168204,
			"target":34962
		}
	],
	"samplers":[
		{
			"magFilter":9729,
			"minFilter":9987
		}
	],
	"buffers":[
		{
			"byteLength":182100,
			"uri":"clothes.bin"
		}
	]
}
